<?xml version="1.0" encoding="utf-8"?>
<svg viewBox="459.45 445.361 1164.09 924.529" width="1164.09" height="924.529" xmlns="http://www.w3.org/2000/svg">
  <defs>
    <style type="text/css">
   
    .fil2 {fill:#2E323D;fill-rule:nonzero}
    .fil6 {fill:#4D5768;fill-rule:nonzero}
    .fil9 {fill:#5C687C;fill-rule:nonzero}
    .fil1 {fill:#688099;fill-rule:nonzero}
    .fil8 {fill:#A31332;fill-rule:nonzero}
    .fil0 {fill:#AFD7E2;fill-rule:nonzero}
    .fil5 {fill:#E28929;fill-rule:nonzero}
    .fil7 {fill:#EF3F1D;fill-rule:nonzero}
    .fil10 {fill:#FF8C3E;fill-rule:nonzero}
    .fil3 {fill:#FFC943;fill-rule:nonzero}
    .fil4 {fill:#FFE36E;fill-rule:nonzero}
   
  </style>
  </defs>
  <g id="Слой_x0020_1">
    <path class="fil0" d="M1424.84 1336.62c-13.07,-3.21 -35.09,21.75 -91.75,-22.41 -70.45,-54.89 -92.37,35.4 -218.64,-62.38 -104.79,-81.15 -156.71,34.74 -188.69,60.67 -10.61,8.59 -58.05,27.36 -54.78,-61.19 2.01,-54.54 -42.89,-64.03 -59.56,-44.81 -32.81,37.83 19.45,87.49 0.37,92.88 -25.75,7.28 -47.1,-122.44 -120.02,-166.6 -63.28,-38.33 -155.22,52.06 1.29,119.07 38.43,16.45 57.69,31.29 69.16,48.41 10.31,15.39 4.25,36.39 -12.54,44.22l-176.12 25.41 1049.98 0c0,0 -184.63,-29.83 -198.7,-33.27z"/>
    <path class="fil1" d="M1027.13 1341.93c42.88,5.76 399.06,3.7 399.06,3.7l-15.75 -7.03c-14.51,3.5 -37.25,6.87 -77.35,-24.39 -70.45,-54.89 -92.37,35.4 -218.64,-62.38 -68.44,-53 -120.51,-15.39 -157.32,24.31 6.78,6.34 18.41,13.06 38.32,16.96 45.58,8.9 -11.2,43.07 31.68,48.83z"/>
    <path class="fil2" d="M730.96 987.38c-6.79,-7.91 -18.71,-8.81 -26.62,-2.02l-9.23 7.93c-7.9,6.79 -8.81,18.71 -2.01,26.62 6.79,7.91 18.71,8.81 26.62,2.02l9.23 -7.93c7.91,-6.79 8.81,-18.71 2.01,-26.62z"/>
    <path class="fil2" d="M769.84 1030.1c-6.8,-7.91 -18.71,-8.81 -26.62,-2.02l-9.23 7.93c-7.9,6.79 -8.81,18.71 -2.01,26.62 6.79,7.91 18.71,8.82 26.62,2.02l9.23 -7.93c7.9,-6.79 8.8,-18.71 2.01,-26.62z"/>
    <path class="fil2" d="M808.69 1071.24c-7.46,-7.28 -19.41,-7.16 -26.7,0.29l-8.51 8.69c-7.29,7.46 -7.16,19.41 0.29,26.7 7.46,7.29 19.41,7.16 26.7,-0.28l8.5 -8.7c7.3,-7.45 7.17,-19.4 -0.28,-26.7z"/>
    <path class="fil2" d="M851.16 1110.22c-7.61,-7.13 -19.56,-6.73 -26.68,0.88l-8.31 8.88c-7.12,7.61 -6.73,19.56 0.88,26.69 7.62,7.12 19.57,6.73 26.69,-0.89l8.31 -8.87c7.12,-7.62 6.72,-19.57 -0.89,-26.69z"/>
    <path class="fil2" d="M892.32 1150.74c-8.34,-6.27 -20.17,-4.6 -26.44,3.73l-7.31 9.72c-6.27,8.33 -4.6,20.16 3.73,26.43 8.33,6.28 20.16,4.61 26.44,-3.73l7.31 -9.71c6.27,-8.33 4.6,-20.17 -3.73,-26.44z"/>
    <path class="fil2" d="M941.67 1190.15c-8.84,-5.52 -20.49,-2.83 -26.01,6.02l-6.44 10.32c-5.51,8.84 -2.82,20.48 6.02,26.01 8.85,5.51 20.5,2.82 26.02,-6.03l6.43 -10.31c5.52,-8.85 2.83,-20.49 -6.02,-26.01z"/>
    <path class="fil2" d="M991.9 1225.39c-9.17,-4.98 -20.63,-1.59 -25.61,7.57l-5.8 10.69c-4.98,9.16 -1.59,20.62 7.57,25.6 9.16,4.98 20.63,1.59 25.61,-7.57l5.8 -10.69c4.98,-9.16 1.59,-20.62 -7.57,-25.6z"/>
    <path class="fil2" d="M1047.57 1251.63c-9.7,-3.83 -20.66,0.92 -24.5,10.61l-4.47 11.31c-3.84,9.7 0.92,20.66 10.61,24.5 9.7,3.83 20.67,-0.92 24.5,-10.62l4.47 -11.3c3.84,-9.7 -0.91,-20.66 -10.61,-24.5z"/>
    <path class="fil2" d="M528.61 704.53c0,0 -38.86,27.84 -26.07,62.4 12.8,34.55 147.84,202.87 164.48,213.75 16.64,10.88 33.92,-13.44 33.92,-13.44l-172.33 -262.71z"/>
    <path class="fil3" d="M623.52 643.86c0,0 -39.42,6.93 -72.49,31.24 -29.16,21.44 -35.38,62.55 -15.24,92.62 64.91,96.94 251.28,353.25 495.9,499.29 21.36,12.76 44.58,22.1 68.89,27.37 83.1,18.06 285.3,58.29 315.54,44.85 26.82,-11.92 18.6,-42.32 18.6,-42.32l-811.2 -653.05z"/>
    <path class="fil4" d="M544.92 781.21c18.66,27.31 44.6,63.65 76.88,105.01l79.8 -179.52 -51.05 -41.09 -105.63 115.6z"/>
    <path class="fil5" d="M700.65 981.36c87.6,99.38 201.11,208.07 331.04,285.65 10.27,6.13 20.98,11.45 32.02,15.93l11.62 -140.84 -210.69 -304.14 -39.36 -31.68 -124.63 175.08z"/>
    <path class="fil4" d="M598.19 661.71c0,0 157.77,300.32 444.42,532.71 53.32,43.22 259.16,101.49 393.18,116.11 0.53,-7.67 -1.07,-13.62 -1.07,-13.62l-811.2 -653.05c0,0 -8.11,1.44 -20.01,5.25 -1.93,4.14 -3.74,8.33 -5.32,12.6z"/>
    <path class="fil6" d="M1422.78 1346.23c-0.12,0 -0.24,0 -0.36,0 -138.73,-4.53 -237.77,-22.52 -324.13,-41.28 -25.17,-5.48 -49.44,-15.12 -72.13,-28.66 -244.81,-146.16 -430.76,-400.15 -499.34,-502.56 -14.86,-22.19 -22.26,-57.76 1.52,-91.06 3.47,-4.85 10.21,-5.98 15.07,-2.51 4.85,3.47 5.98,10.21 2.51,15.07 -21.88,30.62 -6.41,58.63 -1.16,66.48 67.78,101.2 251.43,352.12 492.47,496.03 20.68,12.34 42.77,21.12 65.65,26.09 85.36,18.55 183.24,36.34 320.24,40.8 5.97,0.2 10.65,5.19 10.45,11.15 -0.19,5.84 -4.99,10.45 -10.79,10.45z"/>
    <path class="fil7" d="M623.52 643.86c0,0 158.12,308.92 444.77,541.31 57.6,46.7 316.37,108.32 366.43,111.74 0,0 51.2,-50.7 12.51,-126.61l-133.11 -124.83 -69.4 -148.7c0,0 -12.51,-288.95 -59.16,-297.67 -46.65,-8.72 -70.54,94.77 -70.54,94.77 0,0 -26.17,34.06 -94.43,-2.29 -68.26,-36.35 -136.53,-85.84 -120.03,-134.76 16.5,-48.92 38.11,-68.84 21.05,-89.88 -17.07,-21.05 -91.02,-41.53 -135.39,15.36 0,0 -127.43,65.99 -162.7,161.56z"/>
    <path class="fil8" d="M1085.19 1171.22c-243.09,-197.09 -405.87,-473.51 -449.74,-552.98 -4.64,8.27 -8.68,16.82 -11.93,25.62 0,0 158.12,308.92 444.77,541.31 57.6,46.7 316.37,108.32 366.43,111.74 0,0 5.16,-5.13 10.97,-14.53 -61.77,-7.09 -304.89,-66.08 -360.5,-111.16z"/>
    <path class="fil8" d="M1447.23 1170.3l-133.11 -124.83 -69.4 -148.7c0,0 -12.51,-288.95 -59.16,-297.67 -46.65,-8.72 -70.54,94.77 -70.54,94.77 0,0 -26.17,34.06 -94.43,-2.29 -29.01,-15.45 -58,-33.28 -80.5,-52.42 -105.98,107.44 -11.63,327.96 211.4,347.19l40.96 69.08c0,0 -67.2,39.17 7.68,84.61 56.9,34.53 175.91,60.52 261.55,87.44 0.15,-16.73 -3.63,-35.97 -14.45,-57.18z"/>
    <path class="fil4" d="M1153.32 793.89c0,13.39 -10.84,24.24 -24.23,24.24 -13.39,0 -24.24,-10.85 -24.24,-24.24 0,-13.39 10.85,-24.24 24.24,-24.24 13.39,0 24.23,10.85 24.23,24.24z"/>
    <path class="fil4" d="M1159.89 866.69c0,13.39 -10.86,24.24 -24.24,24.24 -13.39,0 -24.24,-10.85 -24.24,-24.24 0,-13.39 10.85,-24.24 24.24,-24.24 13.38,0 24.24,10.85 24.24,24.24z"/>
    <path class="fil4" d="M1170.82 941.4c0,13.39 -10.85,24.25 -24.24,24.25 -13.38,0 -24.23,-10.86 -24.23,-24.25 0,-13.38 10.85,-24.23 24.23,-24.23 13.39,0 24.24,10.85 24.24,24.23z"/>
    <path class="fil3" d="M834.11 679.66l-47.89 -197.36c0,0 -36.97,19.17 -76.59,51.76 8.22,100.86 124.48,145.6 124.48,145.6z"/>
    <path class="fil2" d="M607.57 606.47l-25.64 22.29c-8.63,7.5 -10.88,20 -5.36,30.02 17.45,31.68 60.74,104.04 137.27,195.76 10.43,12.5 30.69,7.54 34.26,-8.34l7.85 -34.97c1.09,-4.9 0.28,-10.02 -2.27,-14.33l-109.26 -184.47c-7.73,-13.05 -25.4,-15.9 -36.85,-5.96z"/>
    <path class="fil2" d="M1114.4 694.6c-4.3,4.71 -31.53,30.15 -93.81,-3.02 -68.26,-36.35 -136.53,-85.84 -120.03,-134.76 16.5,-48.92 38.11,-68.84 21.05,-89.88 -17.07,-21.05 -91.02,-41.53 -135.39,15.36l47.89 197.36c0,0 213.68,95.42 280.29,14.94z"/>
    <path class="fil3" d="M1235.73 809.63l-106.15 0c-8.39,0 -15.18,-6.79 -15.18,-15.18l0 -1.12c0,-8.39 6.79,-15.19 15.18,-15.19l106.15 0c8.38,0 15.18,6.8 15.18,15.19l0 1.12c0,8.39 -6.8,15.18 -15.18,15.18z"/>
    <path class="fil5" d="M1180.53 809.63l-50.95 0c-8.39,0 -15.18,-6.79 -15.18,-15.18l0 -1.12c0,-8.39 6.79,-15.19 15.18,-15.19l50.95 0c8.38,0 15.18,6.8 15.18,15.19l0 1.12c0,8.39 -6.8,15.18 -15.18,15.18z"/>
    <path class="fil3" d="M1241.91 878.23l-106.06 4.21c-8.38,0.34 -15.44,-6.19 -15.78,-14.57l-0.04 -1.12c-0.33,-8.38 6.19,-15.44 14.57,-15.78l106.06 -4.21c8.38,-0.33 15.44,6.19 15.78,14.57l0.04 1.12c0.34,8.38 -6.19,15.45 -14.57,15.78z"/>
    <path class="fil5" d="M1186.76 880.42l-50.91 2.02c-8.38,0.34 -15.44,-6.19 -15.78,-14.57l-0.04 -1.12c-0.33,-8.38 6.19,-15.44 14.57,-15.78l50.91 -2.02c8.38,-0.34 15.44,6.19 15.77,14.57l0.05 1.12c0.33,8.38 -6.2,15.45 -14.57,15.78z"/>
    <path class="fil3" d="M1254.17 940.32l-104.83 16.59c-8.29,1.32 -16.06,-4.34 -17.37,-12.62l-0.18 -1.11c-1.31,-8.28 4.34,-16.06 12.63,-17.37l104.83 -16.6c8.29,-1.31 16.06,4.34 17.38,12.63l0.18 1.1c1.3,8.29 -4.35,16.07 -12.64,17.38z"/>
    <path class="fil5" d="M1199.65 948.95l-50.31 7.96c-8.29,1.32 -16.06,-4.34 -17.37,-12.62l-0.18 -1.11c-1.31,-8.28 4.34,-16.06 12.63,-17.37l50.31 -7.97c8.29,-1.31 16.06,4.34 17.38,12.62l0.17 1.11c1.31,8.29 -4.34,16.07 -12.63,17.38z"/>
    <path class="fil9" d="M633.72 622.86l103.66 177.01c0.79,1.35 1.09,2.93 0.85,4.48l-1.29 8.1c-0.99,6.22 -9.21,7.84 -12.48,2.44l-111.76 -184.87c-1.55,-2.57 -1.12,-5.86 1.02,-7.95l1.73 -1.68c5.45,-5.3 14.43,-4.09 18.27,2.47z"/>
    <path class="fil10" d="M1456.43 1192.81c-2.23,-7.22 -5.23,-14.73 -9.2,-22.51l-133.11 -124.83c-90.41,-35.78 -150.7,45.39 142.31,147.34z"/>
    <path class="fil7" d="M947.41 793.55c9.3,35.75 34.28,89.57 101.36,123.49 17.67,8.94 38.34,-4.99 36.78,-24.73l-8.11 -102.77c-1.07,-13.63 -12.74,-24.07 -26.4,-23.4 -15.59,0.78 -39.8,0.28 -75.77,-4.3 -17.92,-2.28 -32.41,14.23 -27.86,31.71z"/>
    <path class="fil10" d="M1063.59 888.61c-50.64,-29.67 -71.09,-72.23 -79.28,-103.7 -0.02,-0.09 0.01,-0.16 -0.01,-0.25 -3.86,-0.43 -7.76,-0.88 -11.76,-1.39 -0.2,-0.03 -0.4,-0.04 -0.59,-0.04 -1.57,0 -2.54,0.95 -2.98,1.52 -0.76,0.98 -0.98,2.12 -0.66,3.37 8.75,33.64 31.5,79.97 90.21,109.65 0.58,0.3 1.13,0.44 1.66,0.44 1.02,0 2.13,-0.52 2.9,-1.35 0.96,-1.04 1,-2.13 0.94,-2.85l-0.43 -5.4z"/>
    <path class="fil8" d="M935.51 984.87l-5.66 -6.62 -5.4 -6.85 -10.79 -13.68 -10.83 -13.63c-3.58,-4.56 -6.94,-9.31 -10.42,-13.95 -6.88,-9.35 -13.88,-18.59 -20.63,-28.03 -27.01,-37.74 -52.69,-76.39 -77.22,-115.75 -24.48,-39.4 -47.55,-79.66 -70.17,-120.11l-33.99 -60.61 -16.99 -30.29 -2.68 -4.8c-6.38,6.94 -12.51,14.22 -18.23,21.8 4.77,8.86 9.7,17.64 14.67,26.4 5.67,10.21 11.65,20.24 17.65,30.26 5.89,10.08 12.1,19.97 18.3,29.87 24.92,39.51 51.01,78.25 77.68,116.56 26.98,38.11 54.53,75.79 83.69,112.22 29.49,36.16 60.37,71.21 93.7,103.72l-22.68 -26.51z"/>
    <path class="fil8" d="M1459.3 1248.8c-15.81,-2.35 -31.62,-4.97 -47.39,-7.84 -33.49,-6.44 -66.89,-13.77 -100.14,-21.92 -33.2,-8.27 -66.29,-17.2 -99.2,-26.79 -32.9,-9.63 -65.68,-19.76 -98.17,-30.82 31.74,13.07 63.86,25.25 96.17,36.94 32.33,11.66 64.91,22.69 97.72,33.08 32.87,10.27 66.01,19.75 99.46,28.38 14.75,3.66 29.57,7.08 44.46,10.29 2.8,-6.16 5.34,-13.3 7.09,-21.32z"/>
    <path class="fil4" d="M723.02 540.33c0,0 22.03,-25.02 54.08,-37.31l17.91 71.12c0,0 -28.09,13.58 -59.26,8.32 0,0 -11.85,-21.05 -12.73,-42.13z"/>
    <path class="fil5" d="M759.59 597.66c9.57,-0.8 22.37,-2.17 31.55,-4.3 3.41,-0.78 6.78,1.32 7.61,4.71l7.78 31.71c1.26,5.14 -3.92,9.53 -8.76,7.38 -10.52,-4.65 -26.66,-13.47 -42.13,-28.54 -3.92,-3.82 -1.51,-10.5 3.95,-10.96z"/>
    <path class="fil0" d="M736.87 1020.04c0,36.97 -29.97,66.95 -66.95,66.95 -36.98,0 -66.95,-29.98 -66.95,-66.95 0,-36.98 29.97,-66.96 66.95,-66.96 36.98,0 66.95,29.98 66.95,66.96z"/>
    <path class="fil1" d="M546.79 1087.86c0,12.56 -10.18,22.73 -22.74,22.73 -12.56,0 -22.74,-10.17 -22.74,-22.73 0,-12.57 10.18,-22.74 22.74,-22.74 12.56,0 22.74,10.17 22.74,22.74z"/>
    <path class="fil1" d="M946.56 1310.53c0,15.87 -12.86,28.73 -28.72,28.73 -15.87,0 -28.73,-12.86 -28.73,-28.73 0,-15.86 12.86,-28.73 28.73,-28.73 15.86,0 28.72,12.87 28.72,28.73z"/>
    <path class="fil0" d="M540.46 965.65c0,22.36 -18.14,40.5 -40.5,40.5 -22.37,0 -40.51,-18.14 -40.51,-40.5 0,-22.38 18.14,-40.51 40.51,-40.51 22.36,0 40.5,18.13 40.5,40.51z"/>
  </g>
</svg>